<?xml version="1.0" encoding="iso-8859-1"?>
<!-- Generator: Adobe Illustrator 19.0.0, SVG Export Plug-In . SVG Version: 6.00 Build 0)  -->
<svg version="1.1" id="Capa_1" xmlns="http://www.w3.org/2000/svg" xmlns:xlink="http://www.w3.org/1999/xlink" x="0px" y="0px"
	 viewBox="0 0 512.005 512.005" style="enable-background:new 0 0 512.005 512.005;" xml:space="preserve">
<path style="fill:#5A821E;" d="M167.39,254.587L167.39,254.587c6.984,6.984,6.984,18.306,0,25.291l-18.968,18.968
	c-6.984,6.984-18.306,6.984-25.291,0l0,0c-6.984-6.984-6.984-18.306,0-25.291l18.968-18.968
	C149.084,247.603,160.406,247.603,167.39,254.587z"/>
<path style="fill:#FDB62F;" d="M252.08,31.291L252.08,31.291C252.071,14.005,238.057-0.009,220.77,0
	c-2.066,0-4.132,0.206-6.162,0.617l0,0c-31.64,6.224-56.376,30.96-62.6,62.6l0,0c-3.407,16.893,7.53,33.357,24.423,36.764
	c2.057,0.411,4.15,0.617,6.251,0.617l0,0c14.344-0.018,26.838-9.784,30.316-23.699l0,0c1.887-7.423,7.691-13.227,15.114-15.114l0,0
	C242.233,58.451,252.178,45.797,252.08,31.291z"/>
<g>
	<path style="fill:#8C421C;" d="M334.98,17.877L334.98,17.877c-17.287,0.009-31.291,14.022-31.291,31.309
		c0,2.066,0.206,4.132,0.617,6.162l0,0c6.197,31.649,30.951,56.403,62.6,62.6l0,0c16.974,3.264,33.384-7.861,36.639-24.834
		c0.385-2.012,0.572-4.06,0.563-6.108l0,0c-0.018-14.344-9.784-26.838-23.699-30.316l0,0c-7.423-1.887-13.227-7.691-15.114-15.114
		l0,0C361.818,27.66,349.325,17.895,334.98,17.877z"/>
	<path style="fill:#8C421C;" d="M82.164,152.021L82.164,152.021c-12.216,12.225-12.216,32.042,0.018,44.267
		c1.467,1.467,3.085,2.79,4.811,3.935l0,0c26.73,17.787,61.536,17.787,88.267,0l0,0c14.505-9.488,18.574-28.939,9.086-43.454
		c-1.118-1.708-2.388-3.291-3.81-4.749l0,0c-10.159-10.114-25.899-12.028-38.186-4.65l0,0c-6.582,3.935-14.792,3.935-21.374,0l0,0
		C108.546,139.617,92.413,141.557,82.164,152.021z"/>
</g>
<path style="fill:#FDB62F;" d="M363.866,241.45L363.866,241.45c17.287-0.009,31.291-14.023,31.291-31.309
	c0-2.066-0.206-4.132-0.617-6.162l0,0c-6.224-31.64-30.96-56.376-62.6-62.6l0,0c-16.893-3.407-33.357,7.53-36.764,24.423
	c-0.411,2.057-0.617,4.15-0.617,6.251l0,0c0.018,14.344,9.784,26.838,23.699,30.316l0,0c7.423,1.887,13.227,7.691,15.114,15.114l0,0
	C336.706,231.604,349.361,241.539,363.866,241.45z"/>
<path style="fill:#5A821E;" d="M112.695,58.925L112.695,58.925c6.984,6.984,6.984,18.306,0,25.291l-18.968,18.968
	c-6.984,6.984-18.306,6.984-25.291,0l0,0c-6.984-6.984-6.984-18.306,0-25.291l18.968-18.968
	C94.389,51.94,105.711,51.94,112.695,58.925z"/>
<path style="fill:#88B337;" d="M19.564,178.849L19.564,178.849c9.882,0,17.886,8.004,17.886,17.886v26.829
	c0,9.882-8.004,17.886-17.886,17.886l0,0c-9.882,0-17.886-8.004-17.886-17.886v-26.829C1.678,186.853,9.682,178.849,19.564,178.849z
	"/>
<path style="fill:#5A821E;" d="M50.077,281.362L50.077,281.362c6.984,6.984,6.984,18.306,0,25.291l-18.968,18.968
	c-6.984,6.984-18.306,6.984-25.291,0l0,0c-6.984-6.984-6.984-18.306,0-25.291l18.968-18.968
	C31.762,274.378,43.093,274.378,50.077,281.362z"/>
<path style="fill:#FDB62F;" d="M148.699,368.886L148.699,368.886c-0.018-17.287-14.04-31.291-31.327-31.273
	c-2.03,0-4.06,0.206-6.054,0.599l0,0c-31.631,6.242-56.358,30.969-62.6,62.6l0,0c-3.363,16.956,7.664,33.429,24.62,36.782
	c2.057,0.402,4.141,0.608,6.233,0.599l0,0c14.371,0.018,26.918-9.757,30.406-23.699l0,0c1.798-7.432,7.593-13.227,15.024-15.024l0,0
	C139.014,395.966,148.798,383.329,148.699,368.886z"/>
<path style="fill:#88B337;" d="M229.436,146.753L229.436,146.753c-6.984-6.984-6.984-18.306,0-25.291l18.968-18.968
	c6.984-6.984,18.306-6.984,25.291,0l0,0c6.984,6.984,6.984,18.306,0,25.291l-18.968,18.968
	C247.751,153.738,236.429,153.738,229.436,146.753z"/>
<g>
	<path style="fill:#5A821E;" d="M471.521,120.399L471.521,120.399c6.984,6.984,6.984,18.306,0,25.291l-18.968,18.968
		c-6.984,6.984-18.306,6.984-25.291,0l0,0c-6.984-6.984-6.984-18.306,0-25.291l18.968-18.968
		C453.215,113.414,464.536,113.414,471.521,120.399z"/>
	<path style="fill:#5A821E;" d="M252.08,223.564L252.08,223.564c9.882,0,17.886,8.004,17.886,17.886v26.829
		c0,9.882-8.004,17.886-17.886,17.886l0,0c-9.882,0-17.886-8.004-17.886-17.886V241.45
		C234.194,231.568,242.198,223.564,252.08,223.564z"/>
</g>
<g>
	<path style="fill:#8C421C;" d="M511.424,228.035L511.424,228.035c-0.009-17.287-14.022-31.291-31.309-31.291
		c-2.066,0-4.132,0.206-6.162,0.617l0,0c-31.64,6.224-56.376,30.96-62.6,62.6l0,0c-3.407,16.893,7.53,33.357,24.423,36.764
		c2.057,0.411,4.15,0.617,6.251,0.617l0,0c14.344-0.018,26.838-9.784,30.316-23.699l0,0c1.887-7.423,7.691-13.227,15.114-15.114l0,0
		C501.578,255.195,511.523,242.541,511.424,228.035z"/>
	<path style="fill:#8C421C;" d="M174.008,411.365L174.008,411.365c-17.287,0.009-31.291,14.023-31.291,31.309
		c0,2.066,0.206,4.132,0.617,6.162l0,0c6.197,31.649,30.951,56.403,62.6,62.6l0,0c16.974,3.264,33.384-7.861,36.639-24.835
		c0.385-2.012,0.572-4.06,0.563-6.108l0,0c-0.018-14.344-9.784-26.838-23.699-30.316l0,0c-7.423-1.887-13.227-7.691-15.114-15.114
		l0,0C200.846,421.149,188.352,411.383,174.008,411.365z"/>
</g>
<path style="fill:#88B337;" d="M202.536,327.141L202.536,327.141c6.984-6.984,18.306-6.984,25.291,0l18.968,18.968
	c6.984,6.984,6.984,18.306,0,25.291l0,0c-6.984,6.984-18.306,6.984-25.291,0l-18.968-18.968
	C195.551,345.447,195.551,334.125,202.536,327.141z"/>
<path style="fill:#FDB62F;" d="M439.881,423.438L439.881,423.438c0.215-15.561-12.216-28.349-27.768-28.564
	c-2.182-0.027-4.355,0.188-6.484,0.662l0,0c-29.234,6.305-52.048,29.154-58.308,58.397l0,0
	c-3.407,15.078,6.045,30.066,21.123,33.473c2.191,0.492,4.436,0.724,6.689,0.689l0,0c13.37-0.241,24.951-9.336,28.349-22.268l0,0
	c1.842-6.904,7.226-12.288,14.13-14.13l0,0C430.527,448.326,439.63,436.781,439.881,423.438z"/>
<path style="fill:#88B337;" d="M488.343,327.132L488.343,327.132c6.984,6.984,6.984,18.306,0,25.291l-18.968,18.968
	c-6.984,6.984-18.306,6.984-25.291,0l0,0c-6.984-6.984-6.984-18.306,0-25.291l18.968-18.968
	C470.036,320.148,481.358,320.148,488.343,327.132z"/>
<path style="fill:#5A821E;" d="M296.794,447.137L296.794,447.137c9.882,0,17.886,8.004,17.886,17.886v26.829
	c0,9.882-8.004,17.886-17.886,17.886l0,0c-9.882,0-17.886-8.004-17.886-17.886v-26.829
	C278.908,455.141,286.912,447.137,296.794,447.137z"/>
<path style="fill:#8C421C;" d="M291.071,358.513L291.071,358.513c0.009,17.287,14.023,31.291,31.309,31.291
	c2.066,0,4.132-0.206,6.162-0.617l0,0c31.649-6.197,56.403-30.951,62.6-62.6l0,0c3.407-16.947-7.566-33.447-24.513-36.854
	c-2.03-0.411-4.087-0.617-6.162-0.617l0,0c-14.496-0.081-27.151,9.801-30.585,23.878l0,0c-1.878,7.485-7.718,13.325-15.203,15.203
	l0,0C300.801,331.711,291.08,344.195,291.071,358.513z"/>
<g>
</g>
<g>
</g>
<g>
</g>
<g>
</g>
<g>
</g>
<g>
</g>
<g>
</g>
<g>
</g>
<g>
</g>
<g>
</g>
<g>
</g>
<g>
</g>
<g>
</g>
<g>
</g>
<g>
</g>
</svg>
